<svg width="64" height="32" viewBox="0 0 64 32" fill="none" xmlns="http://www.w3.org/2000/svg">
<path d="M12.649 12.5164C12.649 5.6038 18.2528 0 25.1654 0H62C63.1046 0 64 0.895431 64 2V12.1853C64 13.2899 63.1046 14.1853 62 14.1853H14.3178C13.3961 14.1853 12.649 13.4381 12.649 12.5164Z" fill="#D4D412"/>
<path d="M51.351 19.4836C51.351 26.3962 45.7472 32 38.8346 32L2 32C0.895428 32 -7.53989e-08 31.1046 -1.68408e-07 30L-1.02605e-06 19.8147C-1.11906e-06 18.7101 0.89543 17.8147 2 17.8147L49.6822 17.8147C50.6039 17.8147 51.351 18.5619 51.351 19.4836Z" fill="#D4D412"/>
</svg>
