<svg width="55" height="28" viewBox="0 0 55 28" fill="none" xmlns="http://www.w3.org/2000/svg">
<path d="M10.7215 9.77794C10.7215 4.37773 15.0992 0 20.4994 0H51.5675C53.0479 0 54.248 1.20011 54.248 2.68051V8.02381C54.248 10.2329 52.4571 12.0238 50.248 12.0238H12.9674C11.727 12.0238 10.7215 11.0183 10.7215 9.77794V9.77794Z" fill="white"/>
<path d="M43.5265 17.3461C43.5265 22.7463 39.1487 27.124 33.7485 27.124L2.68052 27.124C1.20011 27.124 3.71364e-06 25.9239 3.58899e-06 24.4435L3.13906e-06 19.1002C2.95304e-06 16.8911 1.79086 15.1002 4 15.1002L41.2806 15.1002C42.5209 15.1002 43.5265 16.1057 43.5265 17.3461V17.3461Z" fill="white"/>
</svg>
